<svg width="51" height="66" viewBox="0 0 51 66" fill="none" xmlns="http://www.w3.org/2000/svg">
<path d="M29.297 34.3972V31.8201C29.2875 26.6994 26.8775 21.8793 22.7866 18.7992V15.0015C22.7866 13.2037 21.3291 11.7463 19.5313 11.7463H18.4463V7.53291L22.6596 11.8786C23.9413 13.0635 25.9294 13.0265 27.1662 11.795C28.403 10.5634 28.4484 8.57548 27.269 7.28877L21.9879 1.87207C21.373 1.2485 20.5341 0.896857 19.6583 0.895508H3.25522C1.45741 0.895508 0 2.35292 0 4.15073C0 5.94854 1.45741 7.40595 3.25522 7.40595H11.9358V11.7463H10.8507C9.05293 11.7463 7.59552 13.2037 7.59552 15.0015V18.7992C3.50434 21.8791 1.09425 26.6993 1.08507 31.8201C1.08507 60.4411 0.900612 59.1759 1.5267 60.9392C2.6097 63.9627 5.46895 65.9854 8.68059 66H21.7015C23.617 65.9994 25.4611 65.2728 26.8621 63.9665C33.4123 67.5876 41.5879 66.272 46.6716 60.7789C51.7552 55.2859 52.4348 47.033 48.3182 40.7823C44.2016 34.5317 36.3513 31.8964 29.297 34.3972ZM2.17015 4.15073C2.17015 3.55146 2.65595 3.06566 3.25522 3.06566H19.6583C19.9505 3.06511 20.2306 3.18248 20.4352 3.39118L25.7249 8.81655C26.0299 9.12769 26.1192 9.59108 25.9517 9.99329C25.7842 10.3955 25.3924 10.6585 24.9567 10.6612C24.6731 10.6642 24.3999 10.5546 24.1972 10.3563L19.5606 5.56133C19.3558 5.35236 19.0753 5.23497 18.7826 5.23581H3.25522C2.96744 5.23581 2.69145 5.12149 2.48796 4.91799C2.28447 4.7145 2.17015 4.43851 2.17015 4.15073ZM14.106 7.40595H16.2761V11.7463H14.106V7.40595ZM9.76567 15.0015C9.76567 14.4022 10.2515 13.9164 10.8507 13.9164H19.5313C20.1306 13.9164 20.6164 14.4022 20.6164 15.0015V18.2567H9.76567V15.0015ZM21.7015 63.8298H8.68059C6.97827 63.825 5.37688 63.0215 4.35549 61.6597H14.106C14.7052 61.6597 15.191 61.1739 15.191 60.5746C15.191 59.9753 14.7052 59.4895 14.106 59.4895H3.38109C3.1988 58.6215 3.25522 60.9294 3.25522 31.8201C3.26309 27.3184 5.41138 23.0886 9.04192 20.4268C22.6976 20.4268 21.2772 20.3802 21.4866 20.5354C25.032 23.2046 27.1201 27.3823 27.1269 31.8201V35.339C26.368 35.7461 25.6424 36.2124 24.9567 36.7333V30.1925C24.9567 28.3947 23.4993 26.9373 21.7015 26.9373H8.68059C6.88278 26.9373 5.42537 28.3947 5.42537 30.1925V54.0641C5.42537 55.862 6.88278 57.3194 8.68059 57.3194H20.3375C21.4677 59.4403 23.0507 61.2866 24.9741 62.7274C24.0331 63.4428 22.8836 63.8301 21.7015 63.8298ZM22.7866 38.6952C18.6633 43.1116 17.3545 49.4624 19.3957 55.1492H8.68059C8.08132 55.1492 7.59552 54.6634 7.59552 54.0641V30.1925C7.59552 29.5932 8.08132 29.1074 8.68059 29.1074H21.7015C22.3008 29.1074 22.7866 29.5932 22.7866 30.1925V38.6952ZM34.7224 63.8298C26.9319 63.8298 20.6164 57.5144 20.6164 49.7239C20.6164 41.9333 26.9319 35.6179 34.7224 35.6179C42.5129 35.6179 48.8283 41.9333 48.8283 49.7239C48.8194 57.5106 42.5092 63.8208 34.7224 63.8298Z" fill="#434242"/>
<path d="M34.7224 37.7881C28.1305 37.7881 22.7866 43.1319 22.7866 49.7239C22.7866 56.3159 28.1305 61.6597 34.7224 61.6597C41.3144 61.6597 46.6583 56.3159 46.6583 49.7239C46.6505 43.1352 41.3112 37.7959 34.7224 37.7881ZM34.7224 59.4896C29.329 59.4896 24.9568 55.1173 24.9568 49.7239C24.9568 44.3305 29.329 39.9582 34.7224 39.9582C40.1159 39.9582 44.4881 44.3305 44.4881 49.7239C44.4821 55.1149 40.1134 59.4836 34.7224 59.4896Z" fill="#434242"/>
<path d="M37.9776 46.4687V44.2986C37.9776 43.1 37.006 42.1284 35.8074 42.1284H33.6373C32.4387 42.1284 31.4671 43.1 31.4671 44.2986V46.4687H29.297C28.0984 46.4687 27.1268 47.4403 27.1268 48.6389V50.809C27.1268 52.0076 28.0984 52.9792 29.297 52.9792H31.4671V55.1493C31.4671 56.3479 32.4387 57.3195 33.6373 57.3195H35.8074C37.006 57.3195 37.9776 56.3479 37.9776 55.1493V52.9792H40.1477C41.3463 52.9792 42.3179 52.0076 42.3179 50.809V48.6389C42.3179 47.4403 41.3463 46.4687 40.1477 46.4687H37.9776ZM40.1477 50.809H36.8925C36.2932 50.809 35.8074 51.2948 35.8074 51.8941V55.1493H33.6373V51.8941C33.6373 51.2948 33.1515 50.809 32.5522 50.809H29.297V48.6389H32.5522C33.1515 48.6389 33.6373 48.1531 33.6373 47.5538V44.2986H35.8074V47.5538C35.8074 48.1531 36.2932 48.6389 36.8925 48.6389H40.1477V50.809Z" fill="#434242"/>
<path d="M10.8507 37.7881C10.2514 37.7881 9.76562 38.2739 9.76562 38.8732V51.8941C9.76562 52.4933 10.2514 52.9791 10.8507 52.9791C11.45 52.9791 11.9358 52.4933 11.9358 51.8941V38.8732C11.9358 38.2739 11.45 37.7881 10.8507 37.7881Z" fill="#434242"/>
<path d="M10.8507 31.2778C10.2514 31.2778 9.76562 31.7636 9.76562 32.3629V34.5331C9.76562 35.1323 10.2514 35.6181 10.8507 35.6181C11.45 35.6181 11.9358 35.1323 11.9358 34.5331V32.3629C11.9358 31.7636 11.45 31.2778 10.8507 31.2778Z" fill="#434242"/>
</svg>
