<svg width="65" height="65" viewBox="0 0 65 65" fill="none" xmlns="http://www.w3.org/2000/svg">
<path d="M59.5833 19.5V17.3333C59.5833 15.5384 58.1283 14.0833 56.3333 14.0833H55.25V13C55.2451 11.4589 54.4195 10.0371 53.0833 9.269V6.62675L57.2899 10.9655C58.5696 12.1484 60.5544 12.1116 61.7893 10.882C63.0241 9.65235 63.0694 7.66765 61.8919 6.383L56.6193 0.975C56.0053 0.352429 55.1678 0.00134663 54.2934 0H37.9167C36.1217 2.16667e-08 34.6667 1.45507 34.6667 3.25C34.6667 5.04493 36.1217 6.5 37.9167 6.5H46.5833V9.269C45.2472 10.0371 44.4215 11.4589 44.4167 13V14.0833H43.3333C41.5384 14.0833 40.0833 15.5384 40.0833 17.3333V19.5C37.0933 19.5036 34.6702 21.9266 34.6667 24.9167V33.5833H26.6988C28.3985 14.8276 28.1667 18.8413 28.1667 13C28.1667 11.2051 26.7116 9.75 24.9167 9.75H3.25C1.45507 9.75 0 11.2051 0 13V17.4319C3.79167 59.1348 3.25 50.3035 3.25 61.75C3.25 63.5449 4.70507 65 6.5 65H59.5833C62.5734 64.9964 64.9964 62.5734 65 59.5833V24.9167C64.9964 21.9266 62.5734 19.5036 59.5833 19.5ZM36.8333 3.25C36.8333 2.65169 37.3184 2.16667 37.9167 2.16667H54.2934C54.5852 2.16613 54.8648 2.2833 55.0691 2.49167L60.3503 7.90833C60.6548 8.21897 60.744 8.68162 60.5768 9.08319C60.4095 9.48475 60.0183 9.74734 59.5833 9.75C59.3002 9.75305 59.0274 9.64355 58.825 9.44558L54.1959 4.65833C53.9914 4.4497 53.7113 4.3325 53.4192 4.33333H37.9167C37.6293 4.33333 37.3538 4.2192 37.1506 4.01603C36.9475 3.81287 36.8333 3.53732 36.8333 3.25ZM48.75 6.5H50.9167V8.66667H48.75V6.5ZM46.5833 13C46.5833 11.8034 47.5534 10.8333 48.75 10.8333H50.9167C52.1133 10.8333 53.0833 11.8034 53.0833 13V14.0833H46.5833V13ZM42.25 17.3333C42.25 16.735 42.735 16.25 43.3333 16.25H56.3333C56.9316 16.25 57.4167 16.735 57.4167 17.3333V19.5H42.25V17.3333ZM45.5 41.1667V37.9167C45.5 35.5234 43.5599 33.5833 41.1667 33.5833V26H58.5V58.5H48.75V44.4167C48.75 42.6217 47.2949 41.1667 45.5 41.1667ZM41.1667 35.75C42.3633 35.75 43.3333 36.7201 43.3333 37.9167V41.1667H21.6667V37.9167C21.6667 36.7201 22.6367 35.75 23.8333 35.75H41.1667ZM2.16667 13C2.16667 12.4017 2.65169 11.9167 3.25 11.9167H4.33333V14.0833C4.33333 14.6816 4.81836 15.1667 5.41667 15.1667C6.01498 15.1667 6.5 14.6816 6.5 14.0833V11.9167H8.66667V14.0833C8.66667 14.6816 9.15169 15.1667 9.75 15.1667C10.3483 15.1667 10.8333 14.6816 10.8333 14.0833V11.9167H13V14.0833C13 14.6816 13.485 15.1667 14.0833 15.1667C14.6816 15.1667 15.1667 14.6816 15.1667 14.0833V11.9167H17.3333V14.0833C17.3333 14.6816 17.8184 15.1667 18.4167 15.1667C19.015 15.1667 19.5 14.6816 19.5 14.0833V11.9167H21.6667V14.0833C21.6667 14.6816 22.1517 15.1667 22.75 15.1667C23.3483 15.1667 23.8333 14.6816 23.8333 14.0833V11.9167H24.9167C25.515 11.9167 26 12.4017 26 13V16.25H2.16667V13ZM25.8971 18.4167L24.5223 33.5833H23.8333C21.4401 33.5833 19.5 35.5234 19.5 37.9167V41.1667C17.7051 41.1667 16.25 42.6217 16.25 44.4167V52H5.32242L2.275 18.4167H25.8971ZM5.41667 54.1667H16.25V58.5953C15.6206 59.9506 12.428 59.8358 11.9557 58.6744C11.6169 57.8939 10.8389 57.3966 9.98833 57.4167H5.41667V54.1667ZM18.4167 48.75H33.5833C34.1816 48.75 34.6667 49.235 34.6667 49.8333V56.3333C34.6667 56.9316 34.1816 57.4167 33.5833 57.4167H18.4167V48.75ZM5.41667 61.75V59.5833H9.9905C10.8333 61.4467 13.8168 62.3534 16.25 61.3167C16.2123 61.8305 16.2802 62.3467 16.4493 62.8333H6.5C5.90169 62.8333 5.41667 62.3483 5.41667 61.75ZM19.5 62.8333C18.9017 62.8333 18.4167 62.3483 18.4167 61.75V59.5833H33.5833C35.3783 59.5833 36.8333 58.1283 36.8333 56.3333V49.8333C36.8333 48.0384 35.3783 46.5833 33.5833 46.5833H18.4167V44.4167C18.4167 43.8184 18.9017 43.3333 19.5 43.3333H45.5C46.0983 43.3333 46.5833 43.8184 46.5833 44.4167V61.75C46.5833 62.3483 46.0983 62.8333 45.5 62.8333H19.5ZM62.8333 59.5833C62.8333 61.3783 61.3783 62.8333 59.5833 62.8333H48.5507C48.7607 62.1316 48.8285 61.395 48.75 60.6667H59.5833C60.1816 60.6667 60.6667 60.1816 60.6667 59.5833V24.9167C60.6667 24.3184 60.1816 23.8333 59.5833 23.8333H40.0833C39.485 23.8333 39 24.3184 39 24.9167V33.5833H36.8333V24.9167C36.8333 23.1217 38.2884 21.6667 40.0833 21.6667H59.5833C61.3783 21.6667 62.8333 23.1217 62.8333 24.9167V59.5833Z" fill="#434242"/>
<path d="M7.58332 48.7498C7.88692 48.7508 8.17703 48.6244 8.38299 48.4014C8.58895 48.1783 8.69186 47.8791 8.66666 47.5765L6.85749 25.9099C6.83837 25.6207 6.70269 25.3516 6.48151 25.1644C6.26034 24.9771 5.97262 24.8876 5.68424 24.9164C5.08849 24.9664 4.64584 25.4895 4.69516 26.0854L6.50432 47.752C6.54894 48.315 7.01857 48.7493 7.58332 48.7498Z" fill="#434242"/>
<path d="M5.41671 22.7497C6.01502 22.7497 6.50004 22.2646 6.50004 21.6663C6.50004 21.068 6.01502 20.583 5.41671 20.583C4.8184 20.583 4.33337 21.068 4.33337 21.6663C4.33337 22.2646 4.8184 22.7497 5.41671 22.7497Z" fill="#434242"/>
</svg>
