<svg width="61" height="64" viewBox="0 0 61 64" fill="none" xmlns="http://www.w3.org/2000/svg">
<path d="M3.32786 63.9998H17.1803C18.9458 63.9998 20.377 62.5686 20.377 60.8031V44.2867C20.4271 40.7575 18.8563 37.4002 16.1147 35.1771C16.1147 28.7027 16.1147 30.0975 16.1009 29.7832C16.5612 29.2578 16.314 29.602 18.8927 25.5209C20.1502 23.5311 19.5567 20.8988 17.5671 19.641L20.9834 14.2375C23.8231 16.033 24.0107 16.2759 24.8194 16.2759C25.5518 16.2771 26.2334 15.902 26.6245 15.2828L30.0407 9.87931C31.2905 7.9486 31.4069 5.49543 30.3457 3.45503C29.2844 1.41463 27.2091 0.101459 24.9107 0.0161365C22.6124 -0.0691863 20.4454 1.08649 19.2358 3.04259L15.8175 8.44718C15.5156 8.92507 15.416 9.50328 15.5405 10.0546C15.665 10.606 16.0034 11.0853 16.4813 11.3871L19.1825 13.092L15.7663 18.4998C14.8108 17.8955 13.6544 17.6956 12.5515 17.944C11.4486 18.1924 10.4896 18.8687 9.8854 19.8243L7.60827 23.427C7.15528 24.1437 6.4361 24.6511 5.60898 24.8376C4.78185 25.024 3.91454 24.8743 3.19786 24.4212C2.87579 24.2181 2.46984 24.2022 2.13291 24.3796C1.79599 24.557 1.57929 24.9006 1.56443 25.2811C1.54957 25.6616 1.73882 26.021 2.06089 26.2241L5.20646 28.2125C4.70745 28.6341 4.41174 29.2484 4.39343 29.9014V35.1792C1.65367 37.4027 0.0831423 40.7585 0.131135 44.2867V60.8031C0.131135 62.5686 1.56236 63.9998 3.32786 63.9998ZM21.0366 4.18169C22.3101 2.2304 24.9145 1.66338 26.8839 2.90865C28.8533 4.15391 29.4578 6.74988 28.241 8.73701L24.8311 14.1416L17.6183 9.58628L21.0366 4.18169ZM9.41015 24.5661L11.6884 20.9634C12.317 19.9719 13.6292 19.6755 14.6229 20.3006L16.4344 21.4397C17.4292 22.0686 17.7259 23.3848 17.0972 24.3796C14.8297 27.9642 14.7711 28.1656 14.2479 28.6419C13.1943 29.6126 11.6188 29.7514 10.4118 28.9797L6.80269 26.7047C7.88178 26.2952 8.79743 25.5442 9.41015 24.5661ZM9.26417 30.7773C10.6711 31.6821 12.4275 31.8546 13.9836 31.2409V44.8195C13.9836 45.9965 13.0295 46.9506 11.8524 46.9506H8.65573C7.47873 46.9506 6.52458 45.9965 6.52458 44.8195V29.9228C6.68301 29.7045 6.90251 29.538 7.1554 29.4443L9.26417 30.7773ZM2.26228 44.2867C2.24124 42.0494 2.99412 39.8735 4.39343 38.1277V44.8195C4.39343 47.1735 6.30173 49.0818 8.65573 49.0818H11.8524C14.2065 49.0818 16.1147 47.1735 16.1147 44.8195V38.1479C17.5093 39.8885 18.2619 42.0564 18.2459 44.2867V60.8031C18.2459 61.3916 17.7688 61.8687 17.1803 61.8687H3.32786C2.73936 61.8687 2.26228 61.3916 2.26228 60.8031V44.2867Z" fill="#434242"/>
<path d="M5.45901 57.6062H15.0492C15.6377 57.6062 16.1147 57.1292 16.1147 56.5407C16.1147 55.9522 15.6377 55.4751 15.0492 55.4751H5.45901C4.87051 55.4751 4.39343 55.9522 4.39343 56.5407C4.39343 57.1292 4.87051 57.6062 5.45901 57.6062Z" fill="#434242"/>
<path d="M34.9754 28.5772C30.7685 36.6074 22.9546 54.7999 27.7763 62.569C28.3602 63.4713 29.3657 64.0114 30.4403 64.0001H56.1334C57.207 64.0126 58.2122 63.4746 58.7973 62.5744C63.6169 54.8031 55.7892 36.5744 51.5983 28.5826C54.7673 9.00159 54.4754 10.8685 54.4754 10.6948C54.4487 8.12036 50.5327 5.39355 43.2868 5.39355C36.0409 5.39355 32.125 8.12036 32.0983 10.6948C32.0983 10.8877 31.9779 10.0629 34.9754 28.5772ZM56.9901 61.4512C56.7952 61.7261 56.4743 61.8833 56.1377 61.8689H30.4403C30.1037 61.8833 29.7827 61.7261 29.5878 61.4512C25.5685 54.9736 32.3114 38.3198 36.6856 29.9017H49.8934C54.2622 38.3198 61.0052 54.9736 56.988 61.4512H56.9901ZM43.2868 7.5247C49.5109 7.5247 52.2249 9.71232 52.3442 10.6596C51.1934 17.7137 51.739 14.4062 49.5737 27.7706H41.5478L39.5467 13.7668C39.4926 13.3899 39.2416 13.0705 38.8882 12.9289C38.5348 12.7873 38.1326 12.845 37.8333 13.0802C37.5339 13.3155 37.3828 13.6926 37.4368 14.0695L39.3943 27.7706H37L34.2295 10.6596C34.3488 9.71232 37.0628 7.5247 43.2868 7.5247Z" fill="#434242"/>
<path d="M41.923 48.0164C38.5845 48.0164 36.6143 46.4052 34.7282 44.1803C34.496 43.8392 34.0877 43.6628 33.6801 43.7276C33.2726 43.7924 32.9391 44.0866 32.824 44.4829C31.3216 49.0649 29.7584 55.2815 30.8069 58.963C30.937 59.4214 31.3555 59.7377 31.832 59.7377H54.7418C55.217 59.7376 55.6347 59.4229 55.7658 58.9662C56.4286 56.655 56.1921 53.1706 55.0881 49.1523C54.8524 47.8886 54.0831 46.7879 52.9772 46.1324C50 44.5874 45.8059 48.0164 41.923 48.0164ZM51.9958 48.0238C52.5539 48.426 52.9274 49.0352 53.0326 49.7149C53.8347 52.2634 54.1244 54.9455 53.8851 57.6066H32.6951C32.3573 55.2879 32.9253 51.5029 34.3009 46.8933C36.2874 48.978 39.0434 50.1546 41.923 50.1475C45.9668 50.1475 50.2558 47.1245 51.9958 48.0238Z" fill="#434242"/>
</svg>
