<svg width="63" height="65" viewBox="0 0 63 65" fill="none" xmlns="http://www.w3.org/2000/svg">
<path d="M10.2017 44.9183L7.5215 38.6642C6.68746 36.7753 4.48011 35.9202 2.59125 36.7543C0.702387 37.5883 -0.152712 39.7957 0.68133 41.6845C5.61808 52.5449 5.85858 53.7214 8.048 55.9087L16.823 64.6837C17.0261 64.8869 17.3016 65.001 17.5889 65.0011H29.3333C29.9316 65.0011 30.4167 64.5161 30.4167 63.9178C30.5624 61.7212 30.442 59.515 30.0581 57.3473C31.0172 57.4383 31.9828 57.4383 32.9419 57.3473C32.475 59.3298 32.5833 60.5475 32.5833 63.9167C32.5833 64.515 33.0684 65 33.6667 65H45.4154C45.7027 65 45.9782 64.8858 46.1813 64.6826L54.9563 55.9076C57.1425 53.7203 57.3169 52.689 62.323 41.6834C62.8625 40.4616 62.7092 39.0447 61.9208 37.9665C61.1324 36.8883 59.8287 36.3126 58.5007 36.4563C57.1728 36.6 56.0224 37.4412 55.4828 38.6631L52.7983 44.9183C51.5408 44.0482 49.9778 43.7409 48.4845 44.07C48.9858 42.8405 49.4112 41.5815 49.7585 40.3C51.9089 39.8667 57.1187 37.9784 57.1187 29.7917C57.1187 27.0173 56.6355 23.5983 53.8763 23.2213C57.7764 17.185 59.335 9.93092 58.2583 2.82535L57.825 0.848263C57.7144 0.350715 57.2719 -0.00244691 56.7623 1.27681e-05H6.23775C5.73009 9.98898e-05 5.29058 0.352701 5.18041 0.848263L4.72541 2.9066C3.66808 9.99172 5.23321 17.2192 9.127 23.2321C6.39483 23.6394 5.92141 27.0487 5.92141 29.796C5.92141 37.986 11.1355 39.871 13.2881 40.3043C13.6373 41.5895 14.0646 42.8521 14.5675 44.0852C13.0598 43.7351 11.4745 44.0376 10.2017 44.9183ZM28.25 62.8333H18.0331L9.58308 54.3768C7.814 52.6121 7.81616 52.1441 2.65408 40.7875C2.42728 40.2737 2.49181 39.678 2.82336 39.2246C3.15492 38.7713 3.70313 38.5293 4.26149 38.5898C4.81985 38.6503 5.30353 39.0041 5.53033 39.5178C9.91892 49.7597 8.21267 47.2648 16.8187 55.8762C17.0907 56.1578 17.4935 56.2707 17.8722 56.1716C18.251 56.0725 18.5468 55.7767 18.6459 55.3979C18.7451 55.0191 18.6321 54.6163 18.3505 54.3443C12.416 48.4109 12.1354 48.2463 11.2308 46.8607C12.4439 45.8535 14.2017 45.8508 15.4179 46.8542C17.6743 48.9232 20.281 50.5739 23.1161 51.7292C25.65 52.5709 28.25 55.8545 28.25 60.45V62.8333ZM29.2868 55.0604C28.2804 52.5843 26.2954 50.6342 23.8018 49.6719C21.673 48.8107 19.6974 47.6108 17.9518 46.1186C14.2295 39.5233 13.7507 31.5748 13.7452 24.0013C16.0408 19.9561 22.062 10.6253 31.5 4.93243C40.9586 10.6676 46.9917 20.0124 49.2948 24.0684C49.2775 31.7601 48.8182 39.3434 45.1435 46.046C43.3719 47.5692 41.3643 48.7938 39.1992 49.6719C36.7036 50.6362 34.7174 52.589 33.7111 55.068C32.2446 55.2916 30.7525 55.289 29.2868 55.0604ZM51.7692 46.8553C50.8689 48.2354 50.6078 48.3806 44.6495 54.3389C44.2389 54.764 44.2448 55.4397 44.6627 55.8576C45.0806 56.2754 45.7563 56.2813 46.1813 55.8708C54.705 47.3482 53.0789 49.7651 57.4697 39.5178C57.6965 39.0041 58.1802 38.6503 58.7385 38.5898C59.2969 38.5293 59.8451 38.7713 60.1766 39.2246C60.5082 39.678 60.5727 40.2737 60.3459 40.7875C55.2608 51.9751 55.2293 52.5688 53.4234 54.3768L44.9669 62.8333H34.75V60.45C34.713 58.0983 35.4728 55.8032 36.9058 53.9381C39.4463 50.7618 40.2566 53.0205 47.5821 46.8542C48.797 45.8492 50.5548 45.8497 51.7692 46.8553ZM54.952 29.7917C54.952 35.2463 52.3076 37.1984 50.3413 37.8983C51.0733 34.041 51.4389 30.1232 51.4333 26.1972C52.4354 25.4854 53.3238 25.1886 53.8167 25.4269C54.0821 25.5548 54.952 26.2503 54.952 29.7917ZM55.8956 2.16668C57.3304 9.40748 55.7242 16.9197 51.4539 22.9407C51.351 14.8493 49.2136 9.30585 44.9171 6.01901C44.4417 5.65554 43.7617 5.74624 43.3983 6.2216C43.0348 6.69695 43.1255 7.37696 43.6008 7.74043C46.7327 10.1357 48.5278 14.0552 49.0879 19.6029C44.7438 13.0054 38.0347 5.97785 31.0342 2.16668H55.8956ZM7.10658 2.16668H21.8822C19.4651 3.76769 17.3092 5.73172 15.4905 7.9896C15.1166 8.45688 15.1922 9.13882 15.6595 9.51276C16.1268 9.88671 16.8087 9.81104 17.1827 9.34376C19.6042 6.35366 22.6545 3.93358 26.1169 2.25551C27.2174 2.68805 28.2946 3.17766 29.3442 3.72235C20.2507 9.57668 14.4429 18.3224 11.7172 23.1833C7.31321 17.1289 5.64148 9.50871 7.10658 2.16668ZM8.08808 29.7917C8.08808 26.2459 8.95475 25.5504 9.22558 25.4226C9.70875 25.1897 10.6155 25.4908 11.6089 26.1928C11.6035 30.1207 11.9695 34.0404 12.702 37.8993C10.7357 37.2038 8.08808 35.2528 8.08808 29.7917Z" fill="#434242"/>
<path d="M18.9842 23.5462C20.1139 22.9784 21.4236 22.8855 22.622 23.2884L26.8243 24.6891C27.192 24.8114 27.597 24.7283 27.8867 24.471C28.1765 24.2137 28.307 23.8214 28.2291 23.4418C28.1511 23.0623 27.8766 22.7531 27.509 22.6308L23.3067 21.2333C21.5635 20.6477 19.6586 20.7831 18.0157 21.6092C17.6663 21.7804 17.4356 22.1258 17.4112 22.5141C17.3868 22.9023 17.5725 23.2739 17.8976 23.4875C18.2228 23.7011 18.6376 23.7239 18.9842 23.5473V23.5462Z" fill="#434242"/>
<path d="M35.8333 24.7444C36.0858 24.7444 35.8333 24.804 40.3833 23.2884C41.5817 22.8845 42.8918 22.9774 44.0212 23.5463C44.3678 23.7229 44.7826 23.7001 45.1077 23.4865C45.4329 23.2729 45.6186 22.9013 45.5942 22.513C45.5698 22.1247 45.339 21.7794 44.9897 21.6082C43.3464 20.7821 41.4412 20.6468 39.6976 21.2323L35.4964 22.633C34.9928 22.8003 34.6845 23.3078 34.7681 23.8318C34.8518 24.3558 35.3027 24.7422 35.8333 24.7444Z" fill="#434242"/>
<path d="M27.1071 28.9024C26.915 28.337 26.3015 28.0337 25.7356 28.2243C25.6977 28.2362 22.0035 29.4409 19.15 27.3002C18.7209 26.9804 18.1226 27.0218 17.7417 27.3977C17.3613 27.7912 16.87 28.0595 16.3333 28.1669C15.735 28.1669 15.25 28.6519 15.25 29.2502C15.25 29.8485 15.735 30.3335 16.3333 30.3335C17.1423 30.2901 17.9195 30.0044 18.5639 29.5134C18.7275 29.6109 18.8889 29.6976 19.0557 29.781C18.9105 30.0015 18.7213 30.1896 18.5 30.3335C17.9017 30.3335 17.4167 30.8185 17.4167 31.4169C17.4167 32.7483 19.4176 33.2585 21.1791 30.5296C22.9245 30.8862 24.7315 30.7986 26.4343 30.275C26.9982 30.0807 27.2989 29.4671 27.1071 28.9024Z" fill="#434242"/>
<path d="M43.8501 27.3001C41.0106 29.4288 37.3414 28.2502 37.2656 28.2242C36.6993 28.0309 36.0835 28.3333 35.8903 28.8996C35.697 29.4659 35.9994 30.0817 36.5657 30.2749C38.2684 30.7994 40.0756 30.8869 41.821 30.5295C42.3713 31.3843 43.3149 32.5001 44.5001 32.5001C45.1035 32.5031 45.5971 32.0201 45.6072 31.4168C45.6133 31.1316 45.5043 30.8559 45.3047 30.6521C45.1052 30.4482 44.8319 30.3334 44.5466 30.3334C44.3066 30.1956 44.1019 30.0039 43.9486 29.7733C44.1111 29.6899 44.2736 29.6054 44.4361 29.5079C45.0799 30.0008 45.8572 30.2885 46.6667 30.3334C47.265 30.3334 47.7501 29.8484 47.7501 29.2501C47.7501 28.6518 47.265 28.1667 46.6667 28.1667C46.133 28.0591 45.6446 27.7921 45.266 27.4008C44.8848 27.0196 44.2814 26.9767 43.8501 27.3001Z" fill="#434242"/>
<path d="M27.6487 37.7344C29.9794 39.2938 33.0205 39.2938 35.3512 37.7344C35.6732 37.5196 35.8562 37.1493 35.8312 36.7631C35.8062 36.3768 35.577 36.0332 35.2299 35.8617C34.8829 35.6903 34.4707 35.717 34.1487 35.9318C32.5455 37.0033 30.4545 37.0033 28.8512 35.9318C28.3534 35.5997 27.6807 35.7341 27.3486 36.2318C27.0166 36.7296 27.1509 37.4024 27.6487 37.7344Z" fill="#434242"/>
<path d="M38 44.1998C37.9967 43.8369 37.8436 43.4915 37.577 43.2453C37.3103 42.9991 36.9537 42.8741 36.5917 42.8998C35.6936 42.8998 33.0351 41.1665 31.5 41.1665C29.9443 41.1665 27.3227 42.8998 26.4138 42.8998C26.0509 42.8729 25.6931 42.9973 25.4253 43.2436C25.1574 43.4899 25.0035 43.836 25 44.1998C25 45.7284 28.0604 47.6665 31.5 47.6665C34.9396 47.6665 38 45.7273 38 44.1998ZM31.5 43.3332C32.6659 43.6747 33.7989 44.1199 34.8854 44.6635C32.7661 45.7782 30.2339 45.7782 28.1146 44.6635C29.2006 44.1188 30.3337 43.6736 31.5 43.3332Z" fill="#434242"/>
<path d="M32.5833 49.833H30.4166C29.8183 49.833 29.3333 50.318 29.3333 50.9163C29.3333 51.5147 29.8183 51.9997 30.4166 51.9997H32.5833C33.1816 51.9997 33.6666 51.5147 33.6666 50.9163C33.6666 50.318 33.1816 49.833 32.5833 49.833Z" fill="#434242"/>
<path d="M13.0833 13.0002C13.6816 13.0002 14.1667 12.5151 14.1667 11.9168C14.1667 11.3185 13.6816 10.8335 13.0833 10.8335C12.485 10.8335 12 11.3185 12 11.9168C12 12.5151 12.485 13.0002 13.0833 13.0002Z" fill="#434242"/>
</svg>
