<svg width="33" height="33" viewBox="0 0 33 33" fill="none" xmlns="http://www.w3.org/2000/svg">
<path d="M32.435 5.9025C32.1347 3.08821 29.912 0.865082 27.0975 0.564972C20.0394 -0.188324 12.9606 -0.188324 5.90275 0.564972C3.08821 0.865333 0.865333 3.08821 0.564972 5.9025C-0.188324 12.9604 -0.188324 20.0394 0.564972 27.0973C0.865333 29.9118 3.08821 32.1347 5.9025 32.435C12.9604 33.1883 20.0394 33.1883 27.0975 32.435C29.912 32.1347 32.1347 29.9118 32.435 27.0973C33.1883 20.0394 33.1883 12.9606 32.435 5.9025Z" fill="url(#paint0_radial)"/>
<path d="M30.6401 7.09614C30.3737 4.59883 28.4014 2.62622 25.9038 2.35959C19.6408 1.69139 13.3591 1.69139 7.0961 2.35959C4.59879 2.62622 2.62617 4.59883 2.35955 7.09614C1.69135 13.3592 1.69135 19.6408 2.35955 25.9036C2.62617 28.4012 4.59879 30.3738 7.0961 30.6402C13.3591 31.3086 19.6408 31.3086 25.9036 30.6402C28.4011 30.3738 30.3737 28.4012 30.6401 25.9036C31.3086 19.6408 31.3086 13.3592 30.6401 7.09614Z" fill="url(#paint1_linear)"/>
<path d="M0.494507 26.4132C0.517166 26.6413 0.540581 26.8694 0.565002 27.0975C0.865364 29.9118 3.08824 32.1347 5.90278 32.435C12.9606 33.1883 20.0397 33.1883 27.0975 32.435C29.9121 32.1347 32.1347 29.9118 32.4351 27.0975C32.4595 26.8694 32.4829 26.6413 32.5058 26.4132H0.494507Z" fill="url(#paint2_linear)"/>
<path d="M32.4351 27.0973C32.8399 23.3048 33.0268 19.5064 32.9965 15.7084L25.4535 8.16541C24.5111 7.0896 23.1347 6.41813 21.5173 6.35997C18.1912 6.24013 14.8545 6.24617 11.5279 6.36047C8.76494 6.45564 6.83286 8.3127 6.33737 11.0421C6.25001 11.524 6.19764 12.0122 6.12891 12.4976V20.4994C6.16692 20.7587 6.22282 21.0168 6.24019 21.2776C6.35097 22.9378 7.03326 24.3598 8.12569 25.3218L15.8017 32.9975C19.5686 33.0239 23.3359 32.8366 27.0976 32.435C29.9121 32.1347 32.1347 29.9118 32.4351 27.0973Z" fill="url(#paint3_linear)"/>
<path d="M32.435 27.0975C32.1349 29.9115 29.9115 32.1349 27.0975 32.435C23.3363 32.8363 19.5683 33.0239 15.8018 32.9975L8.13745 25.3331C9.02595 26.1108 10.1841 26.5844 11.528 26.635C14.8539 26.7599 18.1914 26.7566 21.5173 26.6368C24.5254 26.528 26.7022 24.3016 26.7961 21.2934C26.8963 18.0995 26.8963 14.8972 26.7961 11.7033C26.7533 10.3155 26.2661 9.09444 25.4585 8.17044L32.9967 15.7087C33.0264 19.5061 32.8396 23.3051 32.435 27.0975Z" fill="url(#paint4_linear)"/>
<path d="M20.3939 12.9266C19.4276 11.8745 18.0411 11.2143 16.5 11.2143C13.581 11.2143 11.2144 13.581 11.2144 16.5C11.2144 18.0411 11.8745 19.4276 12.9266 20.3939L25.1559 32.6231C25.8032 32.5667 26.4505 32.504 27.0973 32.435C29.9118 32.1347 32.1347 29.9118 32.435 27.0972C32.504 26.4505 32.5667 25.8032 32.6231 25.1559L20.3939 12.9266Z" fill="url(#paint5_linear)"/>
<path d="M32.936 20.0547L23.0938 10.2128C22.8642 9.91143 22.5024 9.71581 22.0943 9.71581C21.3999 9.71581 20.8367 10.2788 20.8367 10.9734C20.8367 11.3815 21.0323 11.7433 21.3337 11.9729L32.76 23.3995C32.8375 22.2849 32.8962 21.1698 32.936 20.0547Z" fill="url(#paint6_linear)"/>
<path d="M6.12891 12.4976C6.19764 12.0122 6.25001 11.524 6.33737 11.0421C6.8326 8.3127 8.76494 6.45564 11.5279 6.36047C14.8545 6.24617 18.1912 6.24013 21.5173 6.35997C24.5245 6.46823 26.7023 8.69489 26.7962 11.703C26.8962 14.8972 26.8962 18.0993 26.7962 21.2935C26.7023 24.3016 24.5252 26.528 21.5176 26.6365C18.1915 26.7566 14.854 26.7596 11.5281 26.6348C8.52047 26.5217 6.44135 24.29 6.24019 21.2773C6.22282 21.0168 6.16692 20.7585 6.12891 20.4991C6.12891 17.8319 6.12891 15.1646 6.12891 12.4976ZM16.5028 24.8537C18.025 24.8537 19.5488 24.8993 21.0689 24.8432C23.4524 24.7548 24.9185 23.3323 24.9741 20.9511C25.0431 17.9839 25.0431 15.0128 24.9741 12.0454C24.9185 9.6647 23.4514 8.20897 21.0689 8.15836C18.0449 8.09441 15.0176 8.09492 11.9936 8.15836C9.62926 8.20796 8.15893 9.63424 8.09473 11.9888C8.01315 14.9934 8.01315 18.0033 8.09473 21.008C8.15893 23.3623 9.62926 24.7556 11.9939 24.8432C13.4949 24.8991 14.9998 24.8537 16.5028 24.8537Z" fill="url(#paint7_linear)"/>
<path d="M6.12891 12.4976C6.19764 12.0122 6.25001 11.524 6.33737 11.0421C6.8326 8.3127 8.76494 6.45564 11.5279 6.36047C14.8545 6.24617 18.1912 6.24013 21.5173 6.35997C24.5245 6.46823 26.7023 8.69489 26.7962 11.703C26.8962 14.8972 26.8962 18.0993 26.7962 21.2935C26.7023 24.3016 24.5252 26.528 21.5176 26.6365C18.1915 26.7566 14.854 26.7596 11.5281 26.6348C8.52047 26.5217 6.44135 24.29 6.24019 21.2773C6.22282 21.0168 6.16692 20.7585 6.12891 20.4991C6.12891 17.8319 6.12891 15.1646 6.12891 12.4976ZM16.5028 24.8537C18.025 24.8537 19.5488 24.8993 21.0689 24.8432C23.4524 24.7548 24.9185 23.3323 24.9741 20.9511C25.0431 17.9839 25.0431 15.0128 24.9741 12.0454C24.9185 9.6647 23.4514 8.20897 21.0689 8.15836C18.0449 8.09441 15.0176 8.09492 11.9936 8.15836C9.62926 8.20796 8.15893 9.63424 8.09473 11.9888C8.01315 14.9934 8.01315 18.0033 8.09473 21.008C8.15893 23.3623 9.62926 24.7556 11.9939 24.8432C13.4949 24.8991 14.9998 24.8537 16.5028 24.8537Z" fill="white"/>
<path d="M16.5001 11.2146C13.5811 11.2146 11.2145 13.581 11.2145 16.5C11.2145 19.4193 13.5811 21.7857 16.5001 21.7857C19.4194 21.7857 21.7858 19.4193 21.7858 16.5C21.7858 13.581 19.4194 11.2146 16.5001 11.2146ZM16.5001 19.9659C14.5859 19.9659 13.0343 18.4142 13.0343 16.5C13.0343 14.5858 14.5859 13.0341 16.5001 13.0341C18.4143 13.0341 19.966 14.5858 19.966 16.5C19.966 18.4142 18.4143 19.9659 16.5001 19.9659Z" fill="white"/>
<path d="M23.3517 10.9734C23.3517 11.6678 22.7888 12.2307 22.0944 12.2307C21.4 12.2307 20.8368 11.6678 20.8368 10.9734C20.8368 10.2788 21.4 9.71581 22.0944 9.71581C22.7888 9.71581 23.3517 10.2788 23.3517 10.9734Z" fill="white"/>
<defs>
<radialGradient id="paint0_radial" cx="0" cy="0" r="1" gradientUnits="userSpaceOnUse" gradientTransform="translate(6.76481 28.8394) scale(36.3932)">
<stop stop-color="#FAE100"/>
<stop offset="0.0544" stop-color="#FADC04"/>
<stop offset="0.1167" stop-color="#FBCE0E"/>
<stop offset="0.1829" stop-color="#FCB720"/>
<stop offset="0.2514" stop-color="#FE9838"/>
<stop offset="0.3054" stop-color="#FF7950"/>
<stop offset="0.4922" stop-color="#FF1C74"/>
<stop offset="1" stop-color="#6C1CD1"/>
</radialGradient>
<linearGradient id="paint1_linear" x1="12.6568" y1="14.3382" x2="-43.2491" y2="-17.1088" gradientUnits="userSpaceOnUse">
<stop stop-color="#A1B5D8" stop-opacity="0"/>
<stop offset="0.3094" stop-color="#90A2BD" stop-opacity="0.309804"/>
<stop offset="0.7554" stop-color="#7C8B9C" stop-opacity="0.756863"/>
<stop offset="1" stop-color="#748290"/>
</linearGradient>
<linearGradient id="paint2_linear" x1="16.5" y1="29.1306" x2="16.5" y2="34.2745" gradientUnits="userSpaceOnUse">
<stop stop-color="#FAE100" stop-opacity="0"/>
<stop offset="0.3068" stop-color="#FCA800" stop-opacity="0.305882"/>
<stop offset="0.6275" stop-color="#FE7300" stop-opacity="0.627451"/>
<stop offset="0.8685" stop-color="#FF5200" stop-opacity="0.866667"/>
<stop offset="1" stop-color="#FF4500"/>
</linearGradient>
<linearGradient id="paint3_linear" x1="14.6227" y1="14.576" x2="6.45574" y2="6.40898" gradientUnits="userSpaceOnUse">
<stop stop-color="#833AB4" stop-opacity="0"/>
<stop offset="1" stop-color="#833AB4"/>
</linearGradient>
<linearGradient id="paint4_linear" x1="22.6166" y1="30.1826" x2="18.5403" y2="10.9659" gradientUnits="userSpaceOnUse">
<stop stop-color="#833AB4" stop-opacity="0"/>
<stop offset="1" stop-color="#833AB4"/>
</linearGradient>
<linearGradient id="paint5_linear" x1="24.1677" y1="24.1677" x2="7.79505" y2="7.79502" gradientUnits="userSpaceOnUse">
<stop stop-color="#833AB4" stop-opacity="0"/>
<stop offset="1" stop-color="#833AB4"/>
</linearGradient>
<linearGradient id="paint6_linear" x1="25.382" y1="14.2611" x2="19.9679" y2="8.84699" gradientUnits="userSpaceOnUse">
<stop stop-color="#833AB4" stop-opacity="0"/>
<stop offset="1" stop-color="#833AB4"/>
</linearGradient>
<linearGradient id="paint7_linear" x1="23.0523" y1="9.99344" x2="9.70301" y2="23.3427" gradientUnits="userSpaceOnUse">
<stop stop-color="#833AB4"/>
<stop offset="0.0922" stop-color="#9C3495"/>
<stop offset="0.2927" stop-color="#DC2546"/>
<stop offset="0.392" stop-color="#FD1D1D"/>
<stop offset="0.5589" stop-color="#FC6831"/>
<stop offset="0.6887" stop-color="#FC9B40"/>
<stop offset="0.7521" stop-color="#FCAF45"/>
<stop offset="0.7806" stop-color="#FDB750"/>
<stop offset="0.8656" stop-color="#FECB6A"/>
<stop offset="0.9415" stop-color="#FFD87A"/>
<stop offset="1" stop-color="#FFDC80"/>
</linearGradient>
</defs>
</svg>
