<svg width="19" height="19" viewBox="0 0 19 19" fill="none" xmlns="http://www.w3.org/2000/svg">
<path d="M9.50002 0C5.70577 0 2.61894 3.08683 2.61894 6.88104C2.61894 11.5898 8.77684 18.5025 9.03901 18.7945C9.28527 19.0687 9.71522 19.0682 9.96103 18.7945C10.2232 18.5025 16.3811 11.5898 16.3811 6.88104C16.381 3.08683 13.2942 0 9.50002 0ZM9.50002 10.3431C7.59104 10.3431 6.03801 8.79002 6.03801 6.88104C6.03801 4.97206 7.59108 3.41904 9.50002 3.41904C11.409 3.41904 12.962 4.9721 12.962 6.88108C12.962 8.79006 11.409 10.3431 9.50002 10.3431Z" fill="#434242"/>
</svg>
